<svg xmlns="http://www.w3.org/2000/svg" xmlns:xlink="http://www.w3.org/1999/xlink" width="119.448" height="33.857" viewBox="0 0 119.448 33.857">
  <defs>
    <clipPath id="clip-path">
      <rect id="Rectangle_3" data-name="Rectangle 3" width="119.448" height="33.857" fill="none"/>
    </clipPath>
  </defs>
  <g id="Group_3" data-name="Group 3" transform="translate(0 0)">
    <path id="Path_1" data-name="Path 1" d="M0,4.442v17.9H4.17l6.208-17.9Z" transform="translate(0 -0.653)" fill="#de3818"/>
    <path id="Path_2" data-name="Path 2" d="M26.332,31.987h2.856V13.028H19.754Z" transform="translate(-2.906 -1.916)" fill="#0089cd"/>
    <path id="Path_3" data-name="Path 3" d="M13.86,17.744,9.55,30.181h8.621Z" transform="translate(-1.405 -2.61)" fill="#90b528"/>
    <g id="Group_2" data-name="Group 2" transform="translate(0 0)">
      <g id="Group_1" data-name="Group 1" clip-path="url(#clip-path)">
        <path id="Path_4" data-name="Path 4" d="M50.244,26V23.877a6.968,6.968,0,0,1-5.586,2.483c-3.268,0-6.142-1.863-6.142-5.324v-.065c0-3.821,2.972-5.651,6.991-5.651a14.507,14.507,0,0,1,4.768.718v-.327c0-2.385-1.5-3.69-4.246-3.69A12,12,0,0,0,41.1,13.1L40.019,9.932a14.8,14.8,0,0,1,6.567-1.438c5.1,0,7.577,2.679,7.577,7.285V26H50.244Zm.1-7.22a11.307,11.307,0,0,0-3.952-.687c-2.483,0-3.952,1.012-3.952,2.678v.067c0,1.634,1.47,2.548,3.332,2.548,2.614,0,4.572-1.47,4.572-3.626Z" transform="translate(-5.665 -1.25)" fill="#fff"/>
        <path id="Path_5" data-name="Path 5" d="M58.931,8.735h3.952v2.614a6.181,6.181,0,0,1,5.259-2.972,5.424,5.424,0,0,1,5.129,3.039A7.044,7.044,0,0,1,79.12,8.377c3.756,0,6.041,2.386,6.041,6.6V25.983H81.209v-9.8c0-2.743-1.274-4.214-3.5-4.214s-3.691,1.5-3.691,4.279v9.734H70.07V16.15c0-2.678-1.308-4.181-3.494-4.181s-3.692,1.633-3.692,4.312v9.7H58.931Z" transform="translate(-8.668 -1.233)" fill="#fff"/>
        <path id="Path_6" data-name="Path 6" d="M120.477,17.425v-.064c0-4.932,3.494-8.983,8.427-8.983,5.489,0,8.265,4.312,8.265,9.276,0,.36-.033.718-.065,1.111H124.429a4.813,4.813,0,0,0,4.966,4.376,6.258,6.258,0,0,0,4.671-2.058l2.318,2.058a8.723,8.723,0,0,1-7.055,3.234,8.6,8.6,0,0,1-8.852-8.949Zm12.772-1.273c-.262-2.548-1.765-4.541-4.377-4.541-2.416,0-4.116,1.862-4.474,4.541Z" transform="translate(-17.72 -1.233)" fill="#fff"/>
        <path id="Path_7" data-name="Path 7" d="M114.347,4.1,116.779,0H118.3V24.751h-3.954Z" transform="translate(-16.819 0)" fill="#fff"/>
        <path id="Path_8" data-name="Path 8" d="M101.666,8.375a6.893,6.893,0,0,0-5.848,3.234V8.732H91.866V35.088h1.52l2.433-4.105V23.3a7.028,7.028,0,0,0,5.848,3.039c4.117,0,8.036-3.234,8.036-8.951v-.065C109.7,11.608,105.75,8.375,101.666,8.375Zm4.017,9.016c0,3.4-2.221,5.519-4.932,5.519s-5.031-2.189-5.031-5.519v-.065a5.2,5.2,0,0,1,5.031-5.519c2.678,0,4.932,2.189,4.932,5.519Z" transform="translate(-13.512 -1.232)" fill="#fff"/>
      </g>
    </g>
  </g>
</svg>
